<svg width="42" height="32" viewBox="0 0 42 32" fill="none" xmlns="http://www.w3.org/2000/svg">
<path d="M41.1429 29V31.5714H0V0.714284H2.57143V29H41.1429ZM38.5714 3.92857V12.6674C38.5714 13.2299 37.8884 13.5312 37.4665 13.1094L35.0357 10.6786L22.3192 23.3951C22.058 23.6562 21.6562 23.6562 21.3951 23.3951L16.7143 18.7143L8.35714 27.0714L4.5 23.2143L16.2522 11.4621C16.5134 11.2009 16.9152 11.2009 17.1763 11.4621L21.8571 16.1429L31.1786 6.82143L28.7478 4.39062C28.3259 3.96875 28.6272 3.28571 29.1897 3.28571H37.9286C38.2902 3.28571 38.5714 3.56696 38.5714 3.92857Z" fill="#323232"/>
</svg>
