<svg width="36" height="32" viewBox="0 0 36 32" fill="none" xmlns="http://www.w3.org/2000/svg">
<path d="M18.6429 14.8571C18.6429 14.4955 18.3616 14.2143 18 14.2143C16.2321 14.2143 14.7857 15.6607 14.7857 17.4286C14.7857 17.7902 15.067 18.0714 15.4286 18.0714C15.7902 18.0714 16.0714 17.7902 16.0714 17.4286C16.0714 16.3638 16.9353 15.5 18 15.5C18.3616 15.5 18.6429 15.2187 18.6429 14.8571ZM23.1429 17.4688C23.1429 20.3013 20.8326 22.6116 18 22.6116C15.1674 22.6116 12.8571 20.3013 12.8571 17.4688C12.8571 14.6362 15.1674 12.3259 18 12.3259C20.8326 12.3259 23.1429 14.6362 23.1429 17.4688ZM2.57143 29H33.4286V26.4286H2.57143V29ZM25.7143 17.4688C25.7143 13.2098 22.2589 9.75446 18 9.75446C13.7411 9.75446 10.2857 13.2098 10.2857 17.4688C10.2857 21.7277 13.7411 25.183 18 25.183C22.2589 25.183 25.7143 21.7277 25.7143 17.4688ZM5.14286 4.57143H12.8571V2H5.14286V4.57143ZM2.57143 8.42857H33.4286V6.05803V3.28571H16.7946L15.5089 5.85714H2.57143V8.42857ZM36 3.28571V29C36 30.4263 34.8549 31.5714 33.4286 31.5714H2.57143C1.14509 31.5714 0 30.4263 0 29V3.28571C0 1.85937 1.14509 0.714284 2.57143 0.714284H33.4286C34.8549 0.714284 36 1.85937 36 3.28571Z" fill="#323232"/>
</svg>
