<svg width="39" height="26" viewBox="0 0 39 26" fill="none" xmlns="http://www.w3.org/2000/svg">
<path d="M8.35714 20.8571C6.58929 20.8571 5.14286 19.4107 5.14286 17.6429V3.5C5.14286 1.73214 6.58929 0.285714 8.35714 0.285714H30.2143C31.9821 0.285714 33.4286 1.73214 33.4286 3.5V17.6429C33.4286 19.4107 31.9821 20.8571 30.2143 20.8571H8.35714ZM7.71429 3.5V17.6429C7.71429 17.9844 8.01563 18.2857 8.35714 18.2857H30.2143C30.5558 18.2857 30.8571 17.9844 30.8571 17.6429V3.5C30.8571 3.15848 30.5558 2.85714 30.2143 2.85714H8.35714C8.01563 2.85714 7.71429 3.15848 7.71429 3.5ZM35.3571 22.1429H38.5714V24.0714C38.5714 25.1362 37.125 26 35.3571 26H3.21429C1.44643 26 0 25.1362 0 24.0714V22.1429H3.21429H35.3571ZM20.8929 24.0714C21.0737 24.0714 21.2143 23.9308 21.2143 23.75C21.2143 23.5692 21.0737 23.4286 20.8929 23.4286H17.6786C17.4978 23.4286 17.3571 23.5692 17.3571 23.75C17.3571 23.9308 17.4978 24.0714 17.6786 24.0714H20.8929Z" fill="#323232"/>
</svg>
