<svg width="47" height="32" viewBox="0 0 47 32" fill="none" xmlns="http://www.w3.org/2000/svg">
<path d="M35.6384 14.9375L36 21.2857C36.1607 24.1183 30.2344 26.4286 23.1429 26.4286C16.0513 26.4286 10.125 24.1183 10.2857 21.2857L10.6473 14.9375L22.1786 18.5737C22.5 18.6741 22.8214 18.7143 23.1429 18.7143C23.4643 18.7143 23.7857 18.6741 24.1071 18.5737L35.6384 14.9375ZM46.2857 8.42857C46.2857 8.70982 46.1049 8.95089 45.8438 9.05134L23.3438 16.1228C23.2634 16.1429 23.2031 16.1429 23.1429 16.1429C23.0826 16.1429 23.0223 16.1429 22.942 16.1228L9.84375 11.9844C8.69866 12.8884 7.89509 15.0982 7.73438 17.8103C8.49777 18.2522 9 19.0558 9 20C9 20.904 8.53795 21.6875 7.83482 22.1496L9 30.8482C9.02009 31.029 8.95982 31.2098 8.83929 31.3504C8.71875 31.4911 8.53795 31.5714 8.35714 31.5714H4.5C4.3192 31.5714 4.13839 31.4911 4.01786 31.3504C3.89732 31.2098 3.83705 31.029 3.85714 30.8482L5.02232 22.1496C4.3192 21.6875 3.85714 20.904 3.85714 20C3.85714 19.0357 4.39955 18.2121 5.16295 17.7701C5.28348 15.4196 5.88616 12.8884 7.1317 11.1406L0.441964 9.05134C0.180804 8.95089 0 8.70982 0 8.42857C0 8.14732 0.180804 7.90625 0.441964 7.8058L22.942 0.734373C23.0223 0.714284 23.0826 0.714284 23.1429 0.714284C23.2031 0.714284 23.2634 0.714284 23.3438 0.734373L45.8438 7.8058C46.1049 7.90625 46.2857 8.14732 46.2857 8.42857Z" fill="#323232"/>
</svg>
