<svg width="31" height="32" viewBox="0 0 31 32" fill="none" xmlns="http://www.w3.org/2000/svg">
<path d="M18 9.07143V18.0714C18 18.433 17.7188 18.7143 17.3571 18.7143H10.9286C10.567 18.7143 10.2857 18.433 10.2857 18.0714V16.7857C10.2857 16.4241 10.567 16.1429 10.9286 16.1429H15.4286V9.07143C15.4286 8.70982 15.7098 8.42857 16.0714 8.42857H17.3571C17.7188 8.42857 18 8.70982 18 9.07143ZM26.3571 16.1429C26.3571 10.1161 21.4554 5.21428 15.4286 5.21428C9.40179 5.21428 4.5 10.1161 4.5 16.1429C4.5 22.1696 9.40179 27.0714 15.4286 27.0714C21.4554 27.0714 26.3571 22.1696 26.3571 16.1429ZM30.8571 16.1429C30.8571 24.6607 23.9464 31.5714 15.4286 31.5714C6.91071 31.5714 0 24.6607 0 16.1429C0 7.625 6.91071 0.714284 15.4286 0.714284C23.9464 0.714284 30.8571 7.625 30.8571 16.1429Z" fill="#323232"/>
</svg>
