<svg width="53" height="52" viewBox="0 0 53 52" fill="none" xmlns="http://www.w3.org/2000/svg">
<path d="M39.6016 14.2718C39.3016 14.2718 39.1016 14.1853 38.9016 14.0123L26.1016 2.16239L13.3016 14.0123C12.9016 14.3583 12.3016 14.3583 11.9016 14.0123C11.5016 13.6663 11.5016 13.1473 11.9016 12.8013L25.4016 0.259488C25.6016 0.0864965 25.8016 0 26.1016 0C26.4016 0 26.6016 0.0864965 26.8016 0.259488L40.3016 12.8878C40.7016 13.2338 40.6016 13.7528 40.3016 14.0988C40.1016 14.2718 39.8016 14.2718 39.6016 14.2718Z" fill="#323232"/>
<path d="M26.1016 40.2205C25.6016 40.2205 25.1016 39.8745 25.1016 39.3555V0.951503C25.1016 0.519026 25.5016 0.0865479 26.1016 0.0865479C26.6016 0.0865479 27.1016 0.43253 27.1016 0.951503V39.3555C27.0016 39.8745 26.6016 40.2205 26.1016 40.2205Z" fill="#323232"/>
<path d="M48.3 51.8974H3.9C1.8 51.8974 0 50.427 0 48.5241V23.4403C0 21.6239 1.7 20.067 3.9 20.067H13.6C14.1 20.067 14.6 20.413 14.6 20.932C14.6 21.3644 14.2 21.7969 13.6 21.7969H3.9C2.8 21.7969 2 22.5754 2 23.4403V48.5241C2 49.4755 2.9 50.1675 3.9 50.1675H48.3C49.4 50.1675 50.2 49.389 50.2 48.5241V23.4403C50.2 22.4889 49.3 21.7969 48.3 21.7969H38.6C38.1 21.7969 37.6 21.4509 37.6 20.932C37.6 20.4995 38 20.067 38.6 20.067H48.3C50.4 20.067 52.2 21.5374 52.2 23.4403V48.5241C52.1 50.427 50.4 51.8974 48.3 51.8974Z" fill="#323232"/>
</svg>
