<?xml version="1.0" encoding="UTF-8"?>
<svg width="180" height="38" viewBox="0 0 180 38" fill="none" xmlns="http://www.w3.org/2000/svg">
<g clip-path="url(#clip0_315_17071)">
<path d="M80.8164 25.6497C80.8164 18.9621 85.9356 13.6113 92.9472 13.6113C99.4968 13.6113 103.602 17.7165 104.848 23.1129H97.6524C96.822 21.2685 95.3928 19.8849 92.9472 19.8849C90.042 19.8849 87.828 22.0521 87.828 25.6497C87.828 29.2473 90.042 31.4157 92.9472 31.4157C95.3916 31.4157 96.822 30.0321 97.6524 28.1877H104.848C103.602 33.5841 99.4968 37.6893 92.9472 37.6893C85.9368 37.6893 80.8164 32.3385 80.8164 25.6509V25.6497Z" fill="#3C3C3C"/>
<path d="M107.092 25.6497C107.092 18.8697 112.581 13.6113 119.223 13.6113C125.865 13.6113 131.353 18.8697 131.353 25.6497C131.353 32.4297 125.865 37.6881 119.223 37.6881C112.581 37.6881 107.092 32.4297 107.092 25.6497ZM124.342 25.6497C124.342 22.3749 122.128 20.1153 119.223 20.1153C116.317 20.1153 114.102 22.3749 114.102 25.6497C114.102 28.9245 116.316 31.1841 119.223 31.1841C122.129 31.1841 124.342 28.9245 124.342 25.6497Z" fill="#3C3C3C"/>
<path d="M159.337 29.6625H166.67C166.763 31.5069 168.331 32.4297 170.315 32.4297C172.114 32.4297 172.897 31.7841 172.897 30.9537C172.897 29.9385 172.067 29.4777 170.268 29.0169L165.61 27.8181C161.597 26.8029 159.798 23.9901 159.798 20.5761C159.798 16.5633 163.349 13.6113 169.438 13.6113C174.511 13.6113 178.662 16.1937 178.985 21.0837H171.974C171.697 19.3773 170.498 18.9621 169.3 18.9621C167.87 18.9621 166.948 19.5153 166.948 20.4381C166.948 21.6369 168.239 21.9597 169.3 22.2369L173.497 23.3433C178.156 24.5889 180 26.9409 180 30.5853C180 34.8741 175.895 37.6881 170.083 37.6881C163.811 37.6881 159.568 34.1829 159.336 29.6625H159.337Z" fill="#3C3C3C"/>
<path d="M11.1984 37.6869C13.4796 37.6869 15.8808 36.6345 17.2968 35.1549V37.1793H24.2616V25.6485C24.2616 18.8685 18.7728 13.6101 12.1308 13.6101C5.4888 13.6101 0 18.8697 0 25.6497C0 32.4297 4.5684 37.6881 11.1984 37.6881V37.6869ZM12.1296 20.1141C15.036 20.1141 17.25 22.3737 17.25 25.6485C17.25 28.9233 15.036 31.1829 12.1296 31.1829C9.2232 31.1829 7.0104 28.9233 7.0104 25.6485C7.0104 22.3737 9.2244 20.1141 12.1296 20.1141Z" fill="#3C3C3C"/>
<path d="M64.9982 37.6869C67.2794 37.6869 69.6806 36.6345 71.0966 35.1549V37.1793H78.0614V25.6485C78.0614 18.8685 72.5726 13.6101 65.9306 13.6101C59.2886 13.6101 53.7998 18.8685 53.7998 25.6485C53.7998 32.4285 58.3682 37.6869 64.9982 37.6869ZM65.9294 20.1141C68.8358 20.1141 71.0498 22.3737 71.0498 25.6485C71.0498 28.9233 68.8358 31.1829 65.9294 31.1829C63.023 31.1829 60.8102 28.9233 60.8102 25.6485C60.8102 22.3737 63.0242 20.1141 65.9294 20.1141Z" fill="#3C3C3C"/>
<path d="M40.3405 13.6114C38.0593 13.6114 35.6581 14.6638 34.2421 16.1434V0.312988H27.2773V25.6498C27.2773 32.719 32.0641 37.6882 39.4081 37.6882C46.0501 37.6882 51.5389 32.4298 51.5389 25.6498C51.5389 18.8698 46.9705 13.6114 40.3405 13.6114ZM39.4093 31.1842C36.5029 31.1842 34.2889 28.9246 34.2889 25.6498C34.2889 22.375 36.5029 20.1154 39.4093 20.1154C42.3157 20.1154 44.5285 22.375 44.5285 25.6498C44.5285 28.9246 42.3145 31.1842 39.4093 31.1842Z" fill="#3C3C3C"/>
<path d="M145.211 13.6113C138.362 13.6113 134.049 18.1149 134.049 25.6497V37.1805H141.014V25.6497C141.014 22.1961 142.536 20.1153 145.211 20.1153C147.886 20.1153 149.409 22.1961 149.409 25.6497V37.1805H156.374V25.6497C156.374 18.1149 152.062 13.6113 145.211 13.6113Z" fill="#3C3C3C"/>
<path d="M100.794 2.15859H98.2666V0.312988H105.301V2.15859H102.747V9.80739H100.795V2.15859H100.794Z" fill="#3C3C3C"/>
<path d="M108.1 0.312988H111.737C112.182 0.312988 112.584 0.384988 112.94 0.526588C113.297 0.669388 113.603 0.867388 113.856 1.12179C114.11 1.37619 114.306 1.67499 114.444 2.01819C114.582 2.36139 114.652 2.72979 114.652 3.12099C114.652 3.76299 114.485 4.28619 114.15 4.69179C113.815 5.09739 113.332 5.39859 112.699 5.59419L116.11 9.80619H113.77L110.507 5.80779H110.039V9.80619H108.1V0.312988ZM111.51 4.15059C111.876 4.15059 112.17 4.05939 112.392 3.87699C112.615 3.69459 112.727 3.44259 112.727 3.12099C112.727 2.79939 112.615 2.53779 112.392 2.35899C112.169 2.18019 111.875 2.09139 111.51 2.09139H110.039V4.15059H111.51Z" fill="#3C3C3C"/>
<path d="M118.308 0.312988H124.219V2.15859H120.247V4.11099H123.416V5.95659H120.247V7.96299H124.219V9.80859H118.308V0.312988Z" fill="#3C3C3C"/>
<path d="M130.947 9.96819C130.376 9.96819 129.855 9.87699 129.382 9.69459C128.91 9.51219 128.502 9.24939 128.158 8.90619C127.815 8.56299 127.55 8.15019 127.363 7.66899C127.176 7.18779 127.082 6.65259 127.082 6.06459V0.312988H129.021V6.08979C129.021 6.72339 129.198 7.21539 129.549 7.56699C129.901 7.91979 130.368 8.09499 130.947 8.09499C131.527 8.09499 131.992 7.91859 132.345 7.56699C132.697 7.21539 132.873 6.72219 132.873 6.08979V0.312988H134.812V6.06339C134.812 6.65139 134.716 7.18659 134.524 7.66779C134.332 8.14899 134.065 8.56179 133.722 8.90499C133.378 9.24819 132.97 9.51099 132.498 9.69339C132.025 9.87579 131.508 9.96699 130.946 9.96699L130.947 9.96819Z" fill="#3C3C3C"/>
<path d="M137.611 0.312988H139.551V4.09779H143.669V0.312988H145.608V9.80739H143.669V5.94219H139.551V9.80739H137.611V0.312988Z" fill="#3C3C3C"/>
<path d="M151.838 0.312988H153.564L157.669 9.80739H155.636L154.714 7.64139H150.661L149.752 9.80739H147.745L151.838 0.312988ZM151.384 5.94339H153.991L152.694 2.86779L151.384 5.94339Z" fill="#3C3C3C"/>
<path d="M166.614 9.80739L161.747 3.61539V9.80739H159.808V0.312988H161.479L166.346 6.50499V0.312988H168.286V9.80739H166.614Z" fill="#3C3C3C"/>
<path d="M171.51 0.312988H174.639C175.316 0.312988 175.955 0.435388 176.552 0.680188C177.15 0.924988 177.667 1.26219 178.104 1.68939C178.541 2.11779 178.886 2.62059 179.141 3.20019C179.395 3.77979 179.522 4.39899 179.522 5.05899C179.522 5.71899 179.395 6.33819 179.141 6.91779C178.886 7.49739 178.541 8.00139 178.104 8.42859C177.667 8.85699 177.15 9.19299 176.552 9.43779C175.955 9.68259 175.317 9.80499 174.639 9.80499H171.51V0.312988ZM174.639 8.02899C175.076 8.02899 175.475 7.95099 175.836 7.79499C176.197 7.63899 176.504 7.42779 176.759 7.16019C177.013 6.89259 177.211 6.57819 177.354 6.21699C177.497 5.85579 177.567 5.47059 177.567 5.06019C177.567 4.64979 177.495 4.26459 177.354 3.90339C177.211 3.54219 177.013 3.22779 176.759 2.96019C176.504 2.69259 176.197 2.48139 175.836 2.32539C175.475 2.16939 175.076 2.09139 174.639 2.09139H173.449V8.02899H174.639Z" fill="#3C3C3C"/>
</g>
<defs>
<clipPath id="clip0_315_17071">
<rect width="180" height="37.374" fill="white" transform="translate(0 0.312988)"/>
</clipPath>
</defs>
</svg>