<svg width="14" height="15" viewBox="0 0 14 15" fill="none" xmlns="http://www.w3.org/2000/svg">
<path d="M2.11607 11.9107H4.17857V5.71429H2.11607V11.9107ZM4.3125 3.80357C4.30357 3.19643 3.86607 2.73214 3.16071 2.73214C2.45536 2.73214 1.99107 3.19643 1.99107 3.80357C1.99107 4.39286 2.4375 4.875 3.13393 4.875H3.14286C3.86607 4.875 4.3125 4.39286 4.3125 3.80357ZM9.53572 11.9107H11.5982V8.35714C11.5982 6.45536 10.5804 5.57143 9.22322 5.57143C8.11607 5.57143 7.625 6.1875 7.35714 6.61607H7.375V5.71429H5.3125C5.3125 5.71429 5.33929 6.29464 5.3125 11.9107H7.375V8.44643C7.375 8.26786 7.38393 8.08036 7.4375 7.94643C7.58929 7.58036 7.92857 7.19643 8.5 7.19643C9.24107 7.19643 9.53572 7.75893 9.53572 8.59821V11.9107ZM13.7143 3V11.5714C13.7143 12.9911 12.5625 14.1429 11.1429 14.1429H2.57143C1.15179 14.1429 0 12.9911 0 11.5714V3C0 1.58036 1.15179 0.428571 2.57143 0.428571H11.1429C12.5625 0.428571 13.7143 1.58036 13.7143 3Z" fill="#323232"/>
</svg>
