<svg width="34" height="34" viewBox="0 0 34 34" fill="none" xmlns="http://www.w3.org/2000/svg">
<path d="M29.25 24.5714C29.25 24.0491 29.0491 23.567 28.6875 23.2054L24.5089 19.0268C24.1473 18.6652 23.6451 18.4643 23.1429 18.4643C22.5603 18.4643 22.0982 18.6853 21.6964 19.1071C22.3594 19.7701 23.1429 20.3326 23.1429 21.3571C23.1429 22.4219 22.279 23.2857 21.2143 23.2857C20.1897 23.2857 19.6272 22.5022 18.9643 21.8393C18.5424 22.2411 18.3013 22.7031 18.3013 23.3058C18.3013 23.808 18.5022 24.3103 18.8638 24.6719L23.0022 28.8304C23.3638 29.192 23.8661 29.3728 24.3683 29.3728C24.8705 29.3728 25.3728 29.192 25.7344 28.8504L28.6875 25.9174C29.0491 25.5558 29.25 25.0737 29.25 24.5714ZM15.1272 10.4085C15.1272 9.90625 14.9263 9.40402 14.5647 9.04241L10.4263 4.88393C10.0647 4.52232 9.5625 4.32143 9.06027 4.32143C8.55804 4.32143 8.0558 4.52232 7.6942 4.86384L4.74107 7.79688C4.37946 8.15848 4.17857 8.64062 4.17857 9.14286C4.17857 9.66518 4.37946 10.1473 4.74107 10.5089L8.91964 14.6875C9.28125 15.0491 9.78348 15.2299 10.2857 15.2299C10.8683 15.2299 11.3304 15.029 11.7321 14.6071C11.0692 13.9442 10.2857 13.3817 10.2857 12.3571C10.2857 11.2924 11.1496 10.4286 12.2143 10.4286C13.2388 10.4286 13.8013 11.2121 14.4643 11.875C14.8862 11.4732 15.1272 11.0112 15.1272 10.4085ZM33.1071 24.5714C33.1071 26.0982 32.4844 27.5848 31.3996 28.6496L28.4464 31.5826C27.3616 32.6674 25.8951 33.25 24.3683 33.25C22.8214 33.25 21.3549 32.6473 20.2701 31.5424L16.1317 27.3839C15.0469 26.2991 14.4643 24.8326 14.4643 23.3058C14.4643 21.7188 15.1071 20.2121 16.2321 19.1071L14.4643 17.3393C13.3594 18.4643 11.8728 19.1071 10.2857 19.1071C8.75893 19.1071 7.27232 18.5045 6.1875 17.4196L2.00893 13.2411C0.904018 12.1362 0.321429 10.6897 0.321429 9.14286C0.321429 7.61607 0.944196 6.12946 2.02902 5.06473L4.98214 2.1317C6.06696 1.04687 7.53348 0.464284 9.06027 0.464284C10.6071 0.464284 12.0737 1.06696 13.1585 2.17187L17.2969 6.33036C18.3817 7.41518 18.9643 8.8817 18.9643 10.4085C18.9643 11.9955 18.3214 13.5022 17.1964 14.6071L18.9643 16.375C20.0692 15.25 21.5558 14.6071 23.1429 14.6071C24.6696 14.6071 26.1563 15.2098 27.2411 16.2946L31.4196 20.4732C32.5246 21.5781 33.1071 23.0246 33.1071 24.5714Z" fill="#323232"/>
</svg>
