<svg width="149" height="63" viewBox="0 0 149 63" fill="none" xmlns="http://www.w3.org/2000/svg">
<g clip-path="url(#clip0_936_1822)">
<path d="M52.0205 27.7253H13.981V63H52.0205V27.7253Z" fill="#BDDBEF"/>
<path d="M61.7359 29.8668H67.6522V60.8306H61.7359V29.8668ZM81.1178 60.8306V51.5261L85.4497 46.1218L93.1245 60.8306H99.6849L89.4786 41.4904L98.2712 29.8668H91.453L81.1178 43.632V29.8668H75.2016V60.8306H81.1178ZM101.015 60.8306H106.89L108.732 54.1413H118.51L120.226 60.8306H126.101L117.308 29.8251H109.933L101.012 60.8306H101.015ZM113.666 35.7866H113.753L117.228 49.2523H110.024L113.669 35.7866H113.666ZM142.227 29.8668L136.481 52.6822H136.394L130.906 29.8668H125.074L133.264 60.8306H139.87L148.06 29.8668H142.227ZM19.6187 0V3.87917L22.5019 4.44677C22.5019 4.44677 24.0411 16.3176 23.2924 50.7496C23.2924 50.7496 24.8733 50.4327 25.5523 47.9012C26.8756 42.9773 29.0485 20.5694 26.987 1.13172L19.6187 0ZM45.0457 4.17864L35.9537 1.22574V4.95866L39.4498 5.89189C39.4498 5.89189 43.4578 25.2529 37.7853 39.5021C37.7853 39.5021 32.8545 51.07 23.477 53.3439C23.477 53.3439 16.8747 53.5493 9.58297 40.5572C2.37829 27.7148 6.34103 8.76122 7.35087 5.96501L11.5469 4.72187L11.6235 1.22574L1.67837 4.17864C1.67837 4.17864 -4.54085 26.8722 6.96435 45.4497C6.96435 45.4497 11.7837 55.165 23.4317 58.1179C23.4317 58.1179 31.8795 57.1046 39.4533 46.2262C47.0306 35.3444 48.0021 20.8096 45.0492 4.17864" fill="white"/>
</g>
<defs>
<clipPath id="clip0_936_1822">
<rect width="148.063" height="63" fill="white"/>
</clipPath>
</defs>
</svg>
