<svg width="330" height="330" viewBox="0 0 330 330" fill="none" xmlns="http://www.w3.org/2000/svg">
<rect width="330" height="330" fill="#D9D9D9"/>
<path d="M206.062 156.481C219.596 160.416 238.216 173.758 238.216 217.43C238.216 237.202 223.531 253.231 205.486 253.231H123.518C105.473 253.231 90.7878 237.202 90.7878 217.43C90.7878 173.758 109.408 160.416 122.942 156.481C118.143 148.898 115.359 139.972 115.359 130.374C115.359 103.307 137.435 81.231 164.502 81.231C191.569 81.231 213.645 103.307 213.645 130.374C213.645 139.972 210.861 148.898 206.062 156.481ZM164.502 93.5167C144.154 93.5167 127.645 110.026 127.645 130.374C127.645 150.722 144.154 167.231 164.502 167.231C184.85 167.231 201.359 150.722 201.359 130.374C201.359 110.026 184.85 93.5167 164.502 93.5167ZM205.486 240.945C216.716 240.945 225.931 230.483 225.931 217.43C225.931 187.195 215.757 168.287 196.752 167.327C188.114 174.91 176.884 179.517 164.502 179.517C152.12 179.517 140.89 174.91 132.252 167.327C113.248 168.287 103.073 187.195 103.073 217.43C103.073 230.483 112.288 240.945 123.518 240.945H205.486Z" fill="white"/>
</svg>
